<svg width="20" height="20" viewBox="0 0 20 20" xmlns="http://www.w3.org/2000/svg"><path d="M19.582882 4.24737631c-.3597362-.44358491-.9055429-.69048595-1.4720241-.69048595H5.81780299c-.35146642 0-.68639325.10043432-.97583618.28037914l-.62850466-2.2221093C4.11008967 1.2510858 3.78343265 1 3.41129173 1H.63263955C.28530805 1 0 1.2845639 0 1.64026878v.06695621c0 .35152012.28117314.64026879.63263956.64026879h2.38997166l1.21979522 4.3647081 1.67876903 6.02187432c-.95516169.2427163-1.66222943 1.1173318-1.66222943 2.1551531 0 1.1759185.9055429 2.1425988 2.05090994 2.2179246-.09510268.2761943-.14058657.5816821-.11577717.8955393.08269798 1.0629299.93862208 1.9208064 1.98888645 1.9919473 1.25287442.0878801 2.29900384-.9206479 2.29900384-2.1677073 0-.2510858-.041349-.4896174-.119912-.7155946h2.5140186c-.1033725.2971182-.1447215.6277145-.1075074.9666803.1157772 1.0294518.9551617 1.8412959 1.9806167 1.9166216 1.2528744.0878801 2.3031388-.9164631 2.3031388-2.1677073 0-1.2093966-.9923758-2.176077-2.1832267-2.176077H6.47111704c-.40935501 0-.75668653-.3222267-.77322612-.7323335-.0165396-.4352154.32665702-.7909203.75255163-.7909203H16.469303c.8517892 0 1.596071-.5900516 1.802816-1.4270043l1.6704992-6.80442506c.1447215-.58586686.0124047-1.18428801-.3597362-1.64879673zM14.9063111 17.1071539c.3886806 0 .7070678.3222267.7070678.7155945 0 .3933677-.3183872.7155945-.7070678.7155945-.3886805 0-.7070677-.3222268-.7070677-.7155945 0-.3933678.3142523-.7155945.7070677-.7155945zm-6.57035458 0c.38868052 0 .70706774.3222267.70706774.7155945 0 .3933677-.31838722.7155945-.70706774.7155945-.38868051 0-.70706774-.3222268-.70706774-.7155945 0-.3933678.31425233-.7155945.70706774-.7155945zM5.73923991 6.70383235l-.32252213-1.1508099c-.04961879-.17576006.0206745-.30548772.07029328-.36825917.04548389-.06277145.15299127-.16739053.33079193-.16739053h1.3479771l.36800601 1.69064436H5.73923991v-.00418476zm.40522011 1.45629762h1.70357841l.33906173 1.56510147H6.57862442l-.4341644-1.56510147zm1.56712674 4.50280533c-.18607045 0-.35146642-.1255429-.40108521-.3096725l-.32665702-1.1717337h1.51750796l.32252212 1.4772214H7.71158676v.0041848zm3.60149714 0h-1.0171852l-.32252215-1.4772215H11.308949v1.4772215h.0041349zm0-2.93770386H9.65912422L9.3200625 8.16012997h1.9930214v1.56510147zm0-3.02139909H9.00581017l-.36800602-1.69064436h2.67527975v1.69064436zm2.580177 5.95910295h-1.1370973v-1.4772215h1.4430798l-.3059825 1.4772215zm.611965-2.93770386h-1.7490623V8.16012997h2.0757194l-.3266571 1.56510147zm-1.7490623-3.02139909V5.01318799h2.7290334l-.3514664 1.69064436h-2.377567zm4.1224944 5.64106095c-.0454839.1883143-.2108799.3222267-.4052201.3222267h-1.108153l.3101175-1.4772214h1.4885636l-.285308 1.1549947zm.6409094-2.61966186H15.97725l.326657-1.56510147h1.600206l-.3845456 1.56510147zm1.0254549-4.18894804l-.285308 1.16336419h-1.6539596l.3514664-1.69064437h1.1825811c.1778007 0 .2811732.10043432.326657.16320577.0496188.06277145.124047.19249911.0785631.36407441z" fill-rule="nonzero"/></svg>