<svg width="20px" height="20px" viewBox="0 0 20 20" xmlns="http://www.w3.org/2000/svg"><path d="M14,0 C13.5555556,0 13.2222222,0 13,0 C11,0 8,0 4,0 C2.8954305,0 2,0.8954305 2,2 L2,18 C2,19.1045695 2.8954305,20 4,20 L16,20 C17.1045695,20 18,19.1045695 18,18 L18,4 L14,0 Z M12,2 L12,6 C12,6.55228475 12.3837559,7 12.8571429,7 L12.8571429,7 L16,7 L16,17 C16,17.5522847 15.5522847,18 15,18 L5,18 C4.44771525,18 4,17.5522847 4,17 L4,3 C4,2.44771525 4.44771525,2 5,2 L12,2 Z M14,3 L16,5 L14,5 L14,3 Z M9.178362,7.2850957 L12.2062808,10.2662069 C12.4115339,10.468287 12.5066852,10.73997 12.4911532,11.006572 C12.5020611,11.2618945 12.4106878,11.52069 12.2173665,11.7173444 C12.2137015,11.7210725 12.2100062,11.7247707 12.2062808,11.7284385 L9.178362,14.7095497 C8.79247419,15.0894722 8.17320089,15.0897066 7.78702553,14.7100764 C7.40890346,14.3383629 7.40370823,13.7305012 7.77542167,13.3523791 C7.77908663,13.3486509 7.78278199,13.3449528 7.78650736,13.341285 L10.167,10.997 L7.78650736,8.65336038 C7.40866682,8.28136076 7.40393183,7.67349521 7.77593145,7.29565468 C7.77959923,7.29192931 7.78329738,7.28823395 7.78702553,7.28456899 C8.17320089,6.90493876 8.79247419,6.9051732 9.178362,7.2850957 Z" fill-rule="nonzero"></path></svg>