<svg id="icon-143" xmlns="http://www.w3.org/2000/svg" width="100%" height="100%" x="0px" y="0px" viewBox="0 0 36.2 49.8" preserveAspectRatio="none"><path d="M36.2 49.8H.5v-8.7l12-12.1c3.4-3.6 5.7-6 6.7-7.3 1.1-1.3 1.8-2.4 2.2-3.4.4-.9.6-1.9.6-3 0-1.3-.4-2.3-1.2-3-.8-.7-2-1.1-3.5-1.1s-3.1.4-4.7 1.3-3.4 2.2-5.4 3.9L0 7.9C2.5 5.6 4.7 4 6.4 3 8.1 2 10 1.3 12 .8c2-.5 4.3-.8 6.8-.8 3.2 0 6 .6 8.5 1.7s4.4 2.7 5.8 4.8c1.4 2.1 2.1 4.4 2.1 7 0 1.9-.2 3.7-.7 5.3-.5 1.6-1.2 3.2-2.2 4.8-1 1.6-2.3 3.2-4 5-1.7 1.7-5.2 5.1-10.7 9.9v.3h18.6v11z"/></svg>