<svg id="icon-144" xmlns="http://www.w3.org/2000/svg" width="100%" height="100%" x="0px" y="0px" viewBox="0 0 34.7 49.8" preserveAspectRatio="none"><path d="M33.3 11.2c0 3-.9 5.6-2.8 7.7s-4.5 3.7-8 4.7v.2c8.1 1 12.1 4.8 12.1 11.5 0 4.5-1.8 8.1-5.4 10.6s-8.5 3.9-14.9 3.9c-2.6 0-5-.2-7.2-.6s-4.5-1-7.1-2V36.4c2.1 1.1 4.3 1.9 6.5 2.4s4.2.8 6.1.8c2.9 0 5-.4 6.3-1.2 1.3-.8 2-2.1 2-3.8 0-1.3-.3-2.3-1-3.1-.7-.7-1.8-1.3-3.3-1.6-1.5-.4-3.5-.5-6-.5h-3v-9.9h3.1c6.7 0 10-1.7 10-5.1 0-1.3-.5-2.2-1.5-2.9s-2.3-.9-4-.9c-3.1 0-6.3 1-9.6 3.1L.1 4.9c2.6-1.8 5.2-3 7.9-3.8C10.6.4 13.7 0 17.2 0c5 0 9 1 11.8 3 2.8 2 4.3 4.7 4.3 8.2z"/></svg>