<svg id="icon-146" xmlns="http://www.w3.org/2000/svg" width="100%" height="100%" x="0px" y="0px" viewBox="0 0 34 49.8" preserveAspectRatio="none"><path d="M19.2 16.9c2.8 0 5.4.7 7.6 2 2.3 1.3 4 3.2 5.3 5.6 1.3 2.4 1.9 5.2 1.9 8.3 0 5.5-1.7 9.7-5 12.6-3.3 2.9-8.3 4.4-15 4.4-5.7 0-10.4-.9-14.1-2.7V36.3c1.9.9 4.2 1.6 6.6 2.2 2.5.6 4.6.9 6.3.9 2.5 0 4.4-.5 5.7-1.6s2-2.6 2-4.6c0-1.9-.7-3.3-2-4.4-1.3-1.1-3.4-1.6-6.1-1.6-2.1 0-4.3.4-6.8 1.2L.8 26 2.7 0h28v11.1H14l-.6 6.5c1.7-.3 3-.5 3.7-.6.8 0 1.4-.1 2.1-.1z"/></svg>