<svg id="icon-147" xmlns="http://www.w3.org/2000/svg" width="100%" height="100%" x="0px" y="0px" viewBox="0 0 35.3 49.8" preserveAspectRatio="none"><path d="M0 28.6c0-6.8 1-12.2 2.9-16.4C4.8 8 7.7 5 11.4 3c3.8-2 8.4-3 13.9-3 2 0 4.3.2 6.9.6v10.2c-2.2-.4-4.6-.6-7.2-.6-4.4 0-7.6 1-9.8 2.9-2.1 1.9-3.3 5.1-3.5 9.4h.4c2-3.8 5.2-5.6 9.6-5.6 4.3 0 7.6 1.4 10 4.2 2.4 2.8 3.6 6.6 3.6 11.6 0 5.3-1.5 9.5-4.5 12.6-3 3.1-7.2 4.6-12.6 4.6-5.7 0-10.2-1.9-13.4-5.6-3.2-3.8-4.8-9-4.8-15.7zm17.9 10.8c1.4 0 2.5-.5 3.4-1.6.9-1 1.3-2.7 1.3-5 0-3.9-1.5-5.9-4.6-5.9-1.5 0-2.7.5-3.7 1.5-.9 1-1.4 2.3-1.4 3.7 0 2.1.5 3.9 1.4 5.2 1 1.4 2.2 2.1 3.6 2.1z"/></svg>