<svg id="icon-179" xmlns="http://www.w3.org/2000/svg" width="100%" height="100%" x="0px" y="0px" viewBox="0 0 49.2 19.8" preserveAspectRatio="none"><path d="M46.1 0c-1.8 0-3.2 1.4-3.2 3.2 0 .5.1 1 .3 1.4l-8.9 6.7c-.6-.7-1.5-1-2.3-1-1 0-2 .5-2.6 1.3L20.9 7c.7-1.6 0-3.5-1.6-4.2s-3.5 0-4.2 1.6c-.3.7-.4 1.5-.1 2.2L5 14c-.5-.4-1.2-.6-1.8-.6-1.8 0-3.2 1.4-3.2 3.2s1.4 3.2 3.2 3.2 3.2-1.4 3.2-3.2c0-.6-.2-1.2-.5-1.7l9.6-7.2c1.1 1.4 3 1.6 4.4.5.1-.1.2-.1.2-.2l8.8 4.6c-.4 1.7.6 3.5 2.3 3.9 1.7.4 3.5-.6 3.9-2.3.1-.3.1-.5.1-.8 0-.4-.1-.7-.2-1.1l9-6.8c.6.5 1.3.8 2.1.8 1.8 0 3.2-1.4 3.2-3.2S47.8 0 46.1 0zM3.2 18.6c-1.1 0-1.9-.9-1.9-1.9 0-1.1.9-1.9 1.9-1.9s1.9.9 1.9 1.9c0 1-.8 1.9-1.9 1.9zM17.9 7.7c-1.1 0-1.9-.9-1.9-1.9s.9-1.9 1.9-1.9c1.1 0 1.9.9 1.9 1.9.1 1-.8 1.9-1.9 1.9zM32 15.4c-1.1 0-1.9-.9-1.9-1.9s.9-1.9 1.9-1.9c1.1 0 1.9.9 1.9 1.9 0 1-.8 1.9-1.9 1.9zM46.1 5.1c-1.1 0-1.9-.9-1.9-1.9s.9-1.9 1.9-1.9c1.1 0 1.9.9 1.9 1.9 0 1.1-.8 1.9-1.9 1.9 0 .1 0 .1 0 0z"/></svg>